<svg width="24" height="24" viewBox="0 0 24 24" fill="none" xmlns="http://www.w3.org/2000/svg">
<path d="M21 11.0001H5.414L10.707 5.70708C10.8025 5.61483 10.8787 5.50449 10.9311 5.38249C10.9835 5.26048 11.0111 5.12926 11.0123 4.99648C11.0134 4.8637 10.9881 4.73202 10.9378 4.60913C10.8875 4.48623 10.8133 4.37458 10.7194 4.28069C10.6255 4.18679 10.5139 4.11254 10.391 4.06226C10.2681 4.01198 10.1364 3.98668 10.0036 3.98783C9.87082 3.98898 9.7396 4.01657 9.6176 4.06898C9.49559 4.12139 9.38525 4.19757 9.293 4.29308L2.293 11.2931C2.10553 11.4806 2.00021 11.7349 2.00021 12.0001C2.00021 12.2652 2.10553 12.5196 2.293 12.7071L9.293 19.7071C9.4816 19.8892 9.7342 19.99 9.9964 19.9878C10.2586 19.9855 10.5094 19.8803 10.6948 19.6949C10.8802 19.5095 10.9854 19.2587 10.9877 18.9965C10.99 18.7343 10.8892 18.4817 10.707 18.2931L5.414 13.0001H21C21.2652 13.0001 21.5196 12.8947 21.7071 12.7072C21.8946 12.5197 22 12.2653 22 12.0001C22 11.7349 21.8946 11.4805 21.7071 11.293C21.5196 11.1054 21.2652 11.0001 21 11.0001Z" fill="#222E39"/>
</svg>
