<svg width="96" height="101" viewBox="0 0 96 101" fill="none" xmlns="http://www.w3.org/2000/svg">
<g clip-path="url(#clip0_1285_11216)">
<rect x="4" y="4.42969" width="88" height="93" rx="7.04" fill="url(#paint0_radial_1285_11216)"/>
<rect x="4" y="4.42969" width="88" height="93" rx="7.04" fill="white" fill-opacity="0.8"/>
<path d="M55.9899 56.6313L53.0143 107.925L41.3147 108.178L37.4619 56.8096C40.8626 55.8348 44.7452 55.5207 48.5808 55.6935C51.5046 55.8243 53.946 56.1439 55.9899 56.6313Z" fill="#3CCFD5"/>
<path d="M49.9857 52.6946C50.0933 54.1557 50.7667 56.2642 50.7667 56.2642C50.5536 56.5021 49.0826 58.0896 46.6943 58.0498C44.4108 58.0112 43.0253 56.5142 42.8018 56.2642C42.8796 56.0578 42.9657 55.8127 43.0518 55.5351C43.1335 55.2707 43.2124 54.9853 43.2853 54.68C43.4338 54.0442 43.553 53.3227 43.6016 52.5274C43.7131 50.7053 43.4194 49.1692 43.0921 48.0542C42.9955 47.7307 42.895 47.4443 42.8018 47.1953H50.7667C50.6364 47.5486 50.499 47.9725 50.3726 48.4637C50.1496 49.3265 49.9636 50.3934 49.9526 51.6133C49.9481 51.9616 49.9592 52.3226 49.9857 52.6946Z" fill="#EF9C9C"/>
<path d="M50.3748 48.4622C50.1513 49.3261 49.9675 50.393 49.9559 51.6107C48.1101 52.7808 45.7095 54.0625 43.2886 54.6796C43.4387 54.0415 43.5574 53.3201 43.6065 52.5247C43.7186 50.706 43.4238 49.1676 43.0938 48.0527C43.3129 47.6983 43.5044 47.4041 43.6413 47.1943C43.7859 46.9763 43.872 46.8516 43.872 46.8516L45.2558 47.1943L50.3748 48.4622Z" fill="#F18175"/>
<path d="M57.934 47.9149C53.3708 51.6942 40.7042 51.6942 36.141 47.9149C30.9773 43.6387 28.9676 28.0008 34.1307 23.7247C38.6939 19.9459 55.3805 19.9459 59.9437 23.7247C65.1074 28.0008 63.0971 43.6387 57.934 47.9149Z" fill="#FFB2A8"/>
<path d="M32.4502 32.8721C32.0705 32.0403 29.5375 31.8024 28.0312 32.8721C26.5248 33.9418 28.1316 38.6286 29.7384 39.265C31.0753 39.7944 32.4502 39.8678 32.9525 39.265C33.4548 38.6628 33.1535 34.4138 32.4502 32.8721Z" fill="#FFB2A8"/>
<path d="M61.3084 32.8721C61.6876 32.0403 64.2211 31.8024 65.7275 32.8721C67.2338 33.9418 65.627 38.6286 64.0202 39.265C62.6833 39.7944 61.3084 39.8678 60.8061 39.265C60.3038 38.6628 60.6052 34.4138 61.3084 32.8721Z" fill="#FFB2A8"/>
<path d="M48.5362 129.145C57.111 128.614 69.0397 125.916 69.0397 125.916C69.0397 125.916 62.9084 85.8725 63.3455 79.1688C64.2624 65.1101 69.5227 57.2765 55.9938 56.6406L46.3272 86.4222L37.4658 56.8189C34.1021 57.7777 32.2475 56.7665 30.3194 59.1979C26.4474 64.0867 29.6642 83.1281 29.2817 89.4161C28.8992 95.7042 24.4873 125.917 24.4873 125.917C29.7239 127.496 37.5022 129.309 46.3277 129.309L46.7643 125.318L48.5362 129.145Z" fill="white"/>
<path d="M37.4643 56.8203L46.3257 86.4236L36.0761 72.1226C35.6208 71.4873 35.538 70.6571 35.8592 69.944L37.4649 66.3783L35.0456 63.5709C34.4164 62.8407 34.3374 61.7859 34.8513 60.97L37.4643 56.8203Z" fill="#E6E6E6"/>
<path d="M55.9564 56.8203L46.3223 86.4236L57.0206 72.058C57.4671 71.4586 57.5775 70.6726 57.3137 69.9732L55.9569 66.3783L58.3762 63.5709C59.0055 62.8407 59.0844 61.7859 58.5705 60.97L55.9564 56.8203Z" fill="#E6E6E6"/>
<path d="M46.3281 88.5391V123.793" stroke="#DADADB" stroke-width="0.567213" stroke-miterlimit="10"/>
<path d="M33.6801 26.1817C33.6801 26.1817 39.5012 28.2825 47.3662 26.8805C55.2048 25.4829 57.4756 24.6533 57.4756 24.6533C57.4756 24.6533 58.9703 26.4682 60.1328 27.4534C61.6082 28.7036 61.8726 31.4188 60.7041 36.9628C60.6676 37.1344 60.8857 37.241 60.9955 37.1035C61.4741 36.5052 62.1944 35.5729 62.3655 35.1749C62.6277 34.5656 62.9771 32.1706 62.9771 32.1706C62.9771 32.1706 65.5024 23.562 63.4413 20.2436C60.2272 15.0688 34.8144 14.8293 30.3147 21.2918C28.8393 23.4108 31.1493 32.218 31.1493 32.218L32.1765 37.3425C32.2152 37.5352 32.3311 37.703 32.4978 37.8073L33.2258 38.2627C33.3953 38.3687 33.6106 38.2251 33.573 38.0286C33.2534 36.3749 32.4106 31.049 33.6801 26.1817Z" fill="#193036"/>
<path d="M60.8477 57.5C60.8477 57.5 65.392 58.3423 67.9984 59.6521C70.6054 60.962 84.6431 77.8297 84.9694 78.9629C85.2956 80.0961 79.9701 80.8114 77.7595 81.3352C75.5483 81.8591 74.5923 84.7624 69.0389 78.1189C66.778 75.4142 62.4837 70.0397 62.4837 70.0397L60.8477 57.5Z" fill="white"/>
<path d="M67.1118 93.5078C67.1118 93.5078 58.2753 104.8 61.5032 106.979C64.7312 109.157 73.7736 97.2364 73.7736 97.2364L67.1118 93.5078Z" fill="#FFB2A8"/>
<path d="M79.1857 74.7169C83.8791 75.2694 85.9363 79.1547 84.829 82.2805C82.7878 88.0426 68.3748 105.397 68.3748 105.397C67.4176 105.26 65.6039 104.871 63.7603 103.571C62.2363 102.496 61.3305 101.25 60.8486 100.467C66.014 92.4059 69.9755 83.4314 76.3452 76.2839C76.885 75.6784 78.3798 74.6225 79.1857 74.7169Z" fill="white"/>
<path d="M75.6813 79.719L61.9637 101.962C61.4609 101.397 61.0994 100.867 60.8477 100.464C64.8351 94.2386 68.1099 87.4687 72.3281 81.4169C71.4427 80.7567 70.3736 79.7141 69.0378 78.1161C67.6965 76.5182 65.6531 73.9818 64.2014 72.1797L64.2903 71.881L65.1917 66.1328L75.6813 79.719Z" fill="#E6E6E6"/>
<path d="M33.0755 57.5C33.0755 57.5 27.2489 58.3423 24.6425 59.6521C22.0355 60.962 7.99778 77.8297 7.67157 78.9629C7.34535 80.0961 12.6708 80.8114 14.8814 81.3352C17.0926 81.8591 18.0486 84.7624 23.602 78.1189C25.8629 75.4142 30.1572 70.0397 30.1572 70.0397L33.0755 57.5Z" fill="white"/>
<path d="M25.5328 93.5078C25.5328 93.5078 34.3694 104.8 31.1414 106.979C27.9135 109.157 18.8711 97.2364 18.8711 97.2364L25.5328 93.5078Z" fill="#FFB2A8"/>
<path d="M13.4564 74.7169C8.76294 75.2694 6.70574 79.1547 7.813 82.2805C9.85419 88.0426 24.2673 105.397 24.2673 105.397C25.2244 105.26 27.0382 104.871 28.8817 103.571C30.4057 102.496 31.3115 101.25 31.7934 100.467C26.628 92.4059 22.6665 83.4314 16.2968 76.2839C15.757 75.6784 14.2617 74.6225 13.4564 74.7169Z" fill="white"/>
<path d="M16.957 79.719L30.6746 101.962C31.1775 101.397 31.539 100.867 31.7907 100.464C27.8033 94.2386 24.5284 87.4687 20.3103 81.4169C21.1956 80.7567 22.2648 79.7141 23.6011 78.1161C24.9424 76.5182 26.9858 73.9818 28.4375 72.1797L28.3486 71.881L27.4472 66.1328L16.957 79.719Z" fill="#E6E6E6"/>
<path d="M55.7353 56.4609C55.7353 61.2835 51.7037 65.1931 46.7305 65.1931C41.7572 65.1931 37.7256 61.2835 37.7256 56.4609" stroke="#193036" stroke-width="1.62666" stroke-miterlimit="10" stroke-linecap="round"/>
<path d="M38.5947 60.2109C40.4637 61.0731 43.1209 61.9745 46.3444 62.0413C49.9394 62.1158 52.8792 61.1239 54.8586 60.2109" stroke="#193036" stroke-width="1.62638" stroke-miterlimit="10"/>
<path d="M46.7304 65.1953C46.7304 65.1953 42.8081 70.9871 45.6833 79.7287C47.4143 84.9912 47.9105 94.6971 44.1113 99.5439" stroke="#193036" stroke-width="1.62666" stroke-miterlimit="10" stroke-linecap="round"/>
</g>
<rect x="2.24" y="2.66969" width="91.52" height="96.52" rx="8.8" stroke="white" stroke-width="3.52"/>
<defs>
<radialGradient id="paint0_radial_1285_11216" cx="0" cy="0" r="1" gradientUnits="userSpaceOnUse" gradientTransform="translate(48.3697 37.4196) rotate(86.3691) scale(64.2235 93.8942)">
<stop offset="0.2" stop-color="#7162FF"/>
<stop offset="1" stop-color="#1D1756"/>
</radialGradient>
<clipPath id="clip0_1285_11216">
<rect x="4" y="4.42969" width="88" height="93" rx="7.04" fill="white"/>
</clipPath>
</defs>
</svg>
