<svg width="88" height="93" viewBox="0 0 88 93" fill="none" xmlns="http://www.w3.org/2000/svg">
<rect x="1.76" y="1.76" width="84.48" height="89.48" rx="6.24" fill="#D4ECF9"/>
<rect x="1.76" y="1.76" width="84.48" height="89.48" rx="6.24" stroke="white" stroke-width="3.52"/>
<mask id="mask0_1277_11094" style="mask-type:alpha" maskUnits="userSpaceOnUse" x="0" y="0" width="88" height="93">
<rect width="88" height="93" fill="#D9D9D9"/>
</mask>
<g mask="url(#mask0_1277_11094)">
<path d="M6.52118 89.4282C5.31346 95.221 5.14354 101.271 4.9188 107.261C4.34418 122.588 3.37033 137.89 2 153.135C5.34909 155.685 8.5785 158.487 11.9586 160.971C12.6639 161.489 13.6167 162.485 14.4125 162.698C15.7481 163.056 15.1195 163.391 15.7937 162.023C16.6205 160.346 16.6205 156.578 17.0097 154.586C18.8596 145.123 21.6113 135.842 22.0726 126.022C22.5559 115.728 20.5186 105.614 20.2766 95.3599C20.1605 90.4294 20.9106 85.8498 21.3454 81.0098C21.6259 77.8891 22.1064 73.3981 19.5229 71.5874C17.6866 70.3002 15.7947 72.2159 14.4755 73.7626C11.2205 77.5757 7.67682 83.8838 6.52118 89.4282Z" fill="white"/>
<path d="M81.5951 89.4282C82.8028 95.221 82.9727 101.271 83.1974 107.261C83.7721 122.588 84.7459 137.89 86.1163 153.135C82.7672 155.685 79.5378 158.487 76.1576 160.971C75.4523 161.489 74.4995 162.485 73.7038 162.698C72.3682 163.056 72.9967 163.391 72.3225 162.023C71.4957 160.346 71.4957 156.578 71.1066 154.586C69.2566 145.123 66.505 135.842 66.0446 126.022C65.5613 115.728 67.5985 105.614 67.8406 95.3599C67.9575 90.4294 67.2075 85.8498 66.7718 81.0098C66.4913 77.8891 66.0108 73.3981 68.5943 71.5874C70.4305 70.3002 72.3225 72.2159 73.6417 73.7626C76.8958 77.5757 80.4394 83.8838 81.5951 89.4282Z" fill="white"/>
<path d="M57.1455 26.1642C57.5813 26.2007 57.9969 26.3908 58.3359 26.6667C58.7936 27.0394 59.1197 27.5711 59.2439 28.1484C59.3453 28.6198 59.3161 29.1077 59.285 29.5891C59.2595 29.9966 59.2339 30.404 59.2083 30.8115C59.1535 31.6839 59.0895 32.5892 58.6675 33.3548C58.2454 34.1203 57.3565 34.7041 56.5106 34.4849C55.6053 34.2501 55.1357 33.2525 54.9356 32.3389C54.5766 30.6899 54.393 25.9358 57.1455 26.1642Z" fill="#F18175"/>
<path d="M45.6676 15.9751C48.2529 15.7942 51.2192 15.7457 52.9879 17.5254C53.9023 18.4453 54.3125 19.6987 54.6761 20.9101C56.0875 25.6048 56.1076 30.4485 55.8153 35.3195C55.4408 41.571 52.6051 47.6653 47.9752 52.1691C46.7227 53.3878 44.722 54.5425 43.2576 53.5541C41.7932 54.5425 39.7925 53.3878 38.54 52.1691C33.9101 47.6653 31.0735 41.5701 30.6999 35.3195C30.4085 30.4494 30.4286 25.6048 31.8391 20.9101C32.2027 19.6987 32.6129 18.4453 33.5273 17.5254C35.296 15.7457 38.2623 15.7951 40.8476 15.9751H45.6676Z" fill="#FFB2A8"/>
<path d="M33.0201 59.9765C31.5338 61.4135 29.6327 62.6413 27.5918 63.8079H58.9029C56.8611 62.6423 54.96 61.4135 53.4737 59.9765C49.3316 55.9706 49.6395 49.6762 50.6307 44.0003C51.198 40.7526 52.4724 37.631 54.3406 34.9141H32.1541C34.0214 37.631 35.2967 40.7526 35.864 44.0003C36.8552 49.6762 37.1631 55.9715 33.0201 59.9765Z" fill="#FFB2A8"/>
<path d="M29.3641 26.1642C28.9283 26.2007 28.5126 26.3908 28.1737 26.6667C27.716 27.0394 27.3899 27.5711 27.2656 28.1484C27.1642 28.6198 27.1935 29.1077 27.2245 29.5891C27.2501 29.9966 27.2757 30.404 27.3013 30.8115C27.3561 31.6839 27.42 32.5892 27.8421 33.3548C28.2642 34.1203 29.1521 34.7041 29.999 34.4849C30.9043 34.2501 31.3739 33.2525 31.573 32.3389C31.933 30.6899 32.1166 25.9358 29.3641 26.1642Z" fill="#FFB2A8"/>
<path d="M29.9789 27.6818C29.5404 24.2505 29.1019 20.8192 28.6625 17.3879C28.5245 16.3089 28.3875 15.2054 28.6132 14.142C28.8388 13.0777 29.5002 12.0426 30.5207 11.6663C31.5411 11.2908 32.8886 11.8133 33.149 12.8694C34.3421 11.4653 35.706 10.19 37.449 9.59067C39.7 8.81689 42.1813 8.84613 44.4889 9.42989C46.7965 10.0136 49.1115 10.9135 50.9066 12.4775C52.2879 13.6806 52.7904 13.6633 53.9095 14.2443C55.7384 15.1944 59.2081 14.7915 61.2526 14.5266C60.8178 15.8019 59.97 17.6034 58.8682 18.38C58.385 18.7207 56.641 19.4333 56.3413 19.9431C56.1111 20.335 56.0609 20.8027 56.0225 21.2558C55.8462 23.3616 55.8325 25.481 55.9805 27.5895C55.7165 27.7137 55.2478 27.5128 55.0907 27.267C54.9326 27.0213 54.9007 26.718 54.865 26.4284C54.5974 24.2185 53.8985 21.9821 52.3957 20.3414C51.2136 20.3797 49.9702 20.8447 48.8264 21.1426C43.9426 22.4151 38.5864 21.7784 34.1374 19.3949C32.2436 21.8012 30.9053 24.6981 30.8806 27.7594C30.5919 27.7676 30.2685 27.6745 29.9789 27.6818Z" fill="#4C2418"/>
<path d="M44.5035 53.5817C45.2352 53.6749 45.9907 53.674 46.5051 54.1189C46.7545 54.3345 46.9016 54.6423 47.0413 54.9411C47.5493 56.0245 48.5889 57.2167 49.0968 58.3002C49.8935 59.9994 52.0513 60.733 53.7002 61.6283C54.5507 62.0905 55.5273 62.2577 56.4948 62.3354C56.2207 62.1545 55.9531 61.9709 55.6909 61.7845C55.6726 61.7717 55.6543 61.758 55.636 61.7443C55.4141 61.5853 55.1975 61.4246 54.9856 61.261C54.9235 61.2135 54.8623 61.1651 54.8011 61.1167C54.6275 60.9797 54.4585 60.8417 54.2922 60.701C54.2301 60.6489 54.1671 60.5969 54.1068 60.5439C53.8912 60.3566 53.6801 60.1666 53.4782 59.972C50.754 57.3382 49.9601 53.7132 50.014 49.9257C53.0525 46.1956 55.0176 41.6991 55.6351 37.0391C54.8139 39.269 53.8226 42.2756 52.234 44.627C52.0229 44.9395 51.177 46.0403 50.9185 46.3674C50.2031 47.2709 49.4559 48.1835 48.4921 48.8157C47.3236 49.5831 45.8217 50.5852 44.5181 51.0895C43.2145 51.5938 41.2914 52.1684 39.9439 51.7993C39.7667 52.1766 40.1614 52.5211 40.5706 52.6005C42.163 52.9093 42.8947 53.3761 44.5035 53.5817Z" fill="#F18175"/>
<path d="M52.763 59.1591C51.9052 58.136 51.2693 57.0022 50.8409 55.779C49.6021 56.5327 46.7189 57.776 45.2992 57.9322C41.7154 58.3251 38.7582 57.9012 36.0943 55.7909C35.9874 55.7068 35.8449 55.6858 35.7197 55.6328C35.6128 55.9498 35.4849 56.2577 35.3516 56.5637V153.956L43.252 153.86L52.7621 153.976L52.763 59.1591Z" fill="#E8AE2D"/>
<path d="M36.097 55.7909C35.9901 55.7068 35.8476 55.6858 35.7233 55.6328C35.6 56.0001 35.4556 56.3573 35.2976 56.7099C35.2492 56.8186 35.1925 56.9246 35.1405 57.0324C35.0473 57.2233 34.945 57.4097 34.8408 57.5951C35.198 59.8306 35.2218 62.1181 34.9011 64.3591C34.8865 64.4641 37.9186 63.6136 38.2 63.4812C39.2624 62.9824 40.2372 62.2945 41.0676 61.464C41.9154 60.6172 42.6216 59.6177 43.1048 58.5196C43.1752 58.3589 43.2345 58.2036 43.2939 58.051C40.5889 58.0866 38.2447 57.4928 36.097 55.7909Z" fill="#F9CF7A"/>
<path d="M45.3022 57.9336C44.6298 58.0076 43.9858 58.0405 43.3545 58.0514C43.3755 58.1227 43.3874 58.1839 43.4175 58.2679C43.888 59.5789 44.5649 60.3783 45.3004 61.554C45.5735 61.9907 46.0148 62.3378 46.3893 62.6905C47.5002 63.7392 49.1793 63.8315 50.7068 63.8653C51.1489 63.8744 51.6267 63.8744 51.9857 63.615C52.2315 63.4368 52.3859 63.1619 52.5266 62.8933C53.0692 61.8582 53.441 61.2589 53.6374 60.1142C53.5863 60.0658 53.5324 60.0192 53.4821 59.9708C53.3378 59.831 53.198 59.6794 53.0619 59.5204C52.0424 58.4095 51.3225 57.147 50.8447 55.7812C49.605 56.534 46.7209 57.7774 45.3022 57.9336Z" fill="#F9CF7A"/>
<path d="M37.2423 184.625C37.2734 176.605 37.3894 111.401 37.2852 103.382C37.1747 94.9348 37.6909 86.4899 37.4305 78.0468C37.2989 73.7869 37.1491 69.527 36.9792 65.2681C36.8751 62.6407 37.2304 59.2359 36.8641 56.328C36.6083 56.1581 36.3516 55.9891 36.1013 55.7908C35.9944 55.7068 35.8519 55.6858 35.7276 55.6328C35.6043 56.0001 35.46 56.3572 35.3019 56.7099C35.2526 56.8186 35.1969 56.9246 35.1448 57.0324C35.026 57.2763 34.899 57.5166 34.7611 57.7522C34.6926 57.8701 34.6213 57.9861 34.5473 58.1012C34.4002 58.3314 34.2413 58.5553 34.075 58.7754C34.0001 58.875 33.9288 58.9755 33.8494 59.0732C33.5972 59.382 33.3296 59.6835 33.0327 59.9704C27.5596 65.2635 16.5311 67.7502 13.1099 74.5525C12.4165 75.9311 11.8154 77.422 11.7532 78.964C11.2892 90.5305 13.0414 173.195 12.9107 184.945L37.2423 184.625Z" fill="white"/>
<path d="M74.7671 78.9567C74.7049 77.4146 74.1038 75.9237 73.4104 74.5451C69.9892 67.7428 58.9607 65.2552 53.4876 59.963C53.3433 59.8232 53.2035 59.6716 53.0674 59.5126C52.0479 58.4017 51.328 57.1392 50.8493 55.7734C50.5259 55.9699 50.0883 56.2001 49.5959 56.4358C49.3145 59.1454 50.1285 62.4606 50.2372 64.6587C50.4967 69.8951 50.6511 75.1371 50.7433 80.3791C50.927 90.7945 50.8621 101.212 50.8685 111.629C50.8721 116.909 50.9014 179.372 50.9827 184.651L73.6087 184.939C73.4789 173.187 75.2321 90.5223 74.7671 78.9567Z" fill="white"/>
<path d="M37.0229 56.2161C36.4337 55.6241 35.6946 55.1838 34.8934 54.9453C33.0106 57.7828 31.3333 60.7564 29.8789 63.836C30.9587 63.8525 32.0376 63.8689 33.1165 63.8853C33.1175 64.2261 32.8489 64.4846 32.541 64.6326C31.5608 65.1031 30.7093 65.8394 30.1009 66.7411C31.6211 74.6497 34.0529 83.2125 37.4943 90.4935C37.8122 87.1563 37.952 83.7031 37.7811 80.3549C37.7209 79.17 37.5984 77.9897 37.4979 76.8076C36.916 69.9632 36.8987 63.0842 37.0229 56.2161Z" fill="#E6E6E6"/>
<path d="M49.459 56.2161C50.0482 55.6241 50.7873 55.1838 51.5876 54.9453C53.4704 57.7828 55.1477 60.7564 56.6021 63.836C55.5232 63.8525 54.4433 63.8689 53.3644 63.8853C53.3635 64.2261 53.6321 64.4846 53.94 64.6326C54.9202 65.1031 55.7716 65.8394 56.3801 66.7411C54.8599 74.6497 54.267 83.2125 50.8257 90.4935C50.5077 87.1563 50.368 83.7031 50.5388 80.3549C50.5991 79.17 50.4621 77.8974 50.4511 76.7107C50.3862 69.8856 49.5832 63.0842 49.459 56.2161Z" fill="#E6E6E6"/>
<path d="M42.9166 153.844H43.9608C44.011 147.557 43.8302 139.94 43.8091 134.264L43.5305 58.9375C42.6224 75.6016 42.1903 91.5121 42.553 108.226C42.8773 123.169 42.6014 137.989 42.9166 153.844Z" fill="#BC8820"/>
<path d="M62.352 96.1613C62.3584 95.1326 62.4086 94.0866 62.7549 93.1182C62.8362 92.8926 62.9376 92.6642 63.1194 92.5071C63.3012 92.35 63.5798 92.2842 63.7845 92.4093C63.9151 92.4897 63.9937 92.6304 64.0631 92.7665C65.2836 95.1774 65.1785 98.0396 64.74 100.705C64.6971 100.967 64.6514 101.228 64.6057 101.488C64.5537 101.781 64.5025 102.075 64.4514 102.369C64.1152 104.281 62.6836 102.717 62.6252 101.546C62.5356 99.7507 62.341 97.9656 62.352 96.1613Z" fill="#0D455B"/>
<path d="M46.3153 64.6569C46.1371 64.4202 45.811 64.1873 45.4976 64.1955C45.4227 64.1974 45.3478 64.2138 45.2766 64.2467C44.9751 64.3865 44.817 64.7601 44.7631 65.0689C44.7504 65.1447 44.744 65.2242 44.7695 65.2964C44.7997 65.3786 44.8691 65.4398 44.9376 65.4928C45.156 65.6627 45.4127 65.7997 45.6886 65.8198C45.9654 65.8399 46.2623 65.723 46.403 65.4836C46.5519 65.2315 46.4916 64.8926 46.3153 64.6569Z" fill="#F9CF7A"/>
<path d="M46.3153 72.3678C46.1371 72.1312 45.811 71.8982 45.4976 71.9065C45.4227 71.9083 45.3478 71.9247 45.2766 71.9576C44.9751 72.0974 44.817 72.471 44.7631 72.7798C44.7504 72.8556 44.744 72.9351 44.7695 73.0073C44.7997 73.0895 44.8691 73.1507 44.9376 73.2037C45.156 73.3736 45.4127 73.5107 45.6886 73.5317C45.9654 73.5518 46.2623 73.4348 46.403 73.1955C46.5519 72.9415 46.4916 72.6026 46.3153 72.3678Z" fill="#F9CF7A"/>
<path d="M46.3153 72.3678C46.1371 72.1312 45.811 71.8982 45.4976 71.9065C45.4227 71.9083 45.3478 71.9247 45.2766 71.9576C44.9751 72.0974 44.817 72.471 44.7631 72.7798C44.7504 72.8556 44.744 72.9351 44.7695 73.0073C44.7997 73.0895 44.8691 73.1507 44.9376 73.2037C45.156 73.3736 45.4127 73.5107 45.6886 73.5317C45.9654 73.5518 46.2623 73.4348 46.403 73.1955C46.5519 72.9415 46.4916 72.6026 46.3153 72.3678Z" fill="#F9CF7A"/>
<path d="M46.3153 80.0709C46.1371 79.8343 45.811 79.6014 45.4976 79.6096C45.4227 79.6114 45.3478 79.6279 45.2766 79.6607C44.9751 79.8005 44.817 80.1742 44.7631 80.4829C44.7504 80.5588 44.744 80.6382 44.7695 80.7104C44.7997 80.7926 44.8691 80.8538 44.9376 80.9068C45.156 81.0768 45.4127 81.2138 45.6886 81.2339C45.9654 81.254 46.2623 81.137 46.403 80.8977C46.5519 80.6446 46.4916 80.3057 46.3153 80.0709Z" fill="#F9CF7A"/>
<path d="M46.3153 80.0709C46.1371 79.8343 45.811 79.6014 45.4976 79.6096C45.4227 79.6114 45.3478 79.6279 45.2766 79.6607C44.9751 79.8005 44.817 80.1742 44.7631 80.4829C44.7504 80.5588 44.744 80.6382 44.7695 80.7104C44.7997 80.7926 44.8691 80.8538 44.9376 80.9068C45.156 81.0768 45.4127 81.2138 45.6886 81.2339C45.9654 81.254 46.2623 81.137 46.403 80.8977C46.5519 80.6446 46.4916 80.3057 46.3153 80.0709Z" fill="#F9CF7A"/>
<path d="M46.3153 87.7741C46.1371 87.5375 45.811 87.3045 45.4976 87.3127C45.4227 87.3145 45.3478 87.331 45.2766 87.3639C44.9751 87.5036 44.817 87.8773 44.7631 88.1861C44.7504 88.2619 44.744 88.3414 44.7695 88.4135C44.7997 88.4958 44.8691 88.557 44.9376 88.61C45.156 88.7799 45.4127 88.9169 45.6886 88.937C45.9654 88.9571 46.2623 88.8402 46.403 88.6008C46.5519 88.3478 46.4916 88.0098 46.3153 87.7741Z" fill="#F9CF7A"/>
<path d="M46.3153 87.7741C46.1371 87.5375 45.811 87.3045 45.4976 87.3127C45.4227 87.3145 45.3478 87.331 45.2766 87.3639C44.9751 87.5036 44.817 87.8773 44.7631 88.1861C44.7504 88.2619 44.744 88.3414 44.7695 88.4135C44.7997 88.4958 44.8691 88.557 44.9376 88.61C45.156 88.7799 45.4127 88.9169 45.6886 88.937C45.9654 88.9571 46.2623 88.8402 46.403 88.6008C46.5519 88.3478 46.4916 88.0098 46.3153 87.7741Z" fill="#F9CF7A"/>
</g>
</svg>
