<svg width="96" height="101" viewBox="0 0 96 101" fill="none" xmlns="http://www.w3.org/2000/svg">
<g clip-path="url(#clip0_1285_11157)">
<rect x="4" y="4" width="88" height="93" rx="7.04" fill="url(#paint0_radial_1285_11157)"/>
<rect x="4" y="4" width="88" height="93" rx="7.04" fill="white" fill-opacity="0.8"/>
<path d="M14.6519 85.5517C13.591 90.6403 12.0864 94.9401 11.3617 99.9589C9.43732 113.294 9.80726 107.84 8.60352 121.232C11.5455 123.472 18.0353 128.086 21.0053 130.267C21.6249 130.722 22.4619 131.597 23.1608 131.784C24.3341 132.098 23.782 132.393 24.3742 131.191C25.1005 129.717 25.1005 126.408 25.4423 124.657C27.0674 116.345 27.9076 126.323 28.3121 117.697C28.7366 108.655 26.947 99.7695 26.7343 90.7623C26.6324 86.4312 27.2913 82.4083 27.6733 78.1566C27.9196 75.4153 28.3418 71.4702 26.0723 69.8797C24.4593 68.749 22.7973 70.4318 21.6385 71.7904C18.7808 75.14 15.6671 80.6813 14.6519 85.5517Z" fill="white"/>
<path d="M80.5969 85.5517C81.6578 90.6403 81.8071 95.9552 82.0045 101.216C82.5093 114.681 83.3647 128.123 84.5684 141.514C81.6265 143.754 78.7897 146.216 75.8204 148.398C75.2009 148.853 74.3639 149.727 73.6649 149.914C72.4917 150.229 73.0438 150.523 72.4515 149.321C71.7253 147.848 71.7253 144.538 71.3834 142.788C69.7584 134.476 67.3412 126.323 66.936 117.697C66.5115 108.655 68.301 99.7695 68.5137 90.7623C68.6156 86.4312 67.9567 82.4083 67.5748 78.1566C67.3284 75.4153 66.9063 71.4702 69.1757 69.8797C70.7888 68.749 72.4507 70.4318 73.6096 71.7904C76.4689 75.14 79.5825 80.6813 80.5969 85.5517Z" fill="white"/>
<path d="M59.1217 29.9835C59.5045 30.0156 59.8689 30.1826 60.1674 30.4249C60.5694 30.7523 60.8559 31.2194 60.9659 31.7266C61.055 32.1407 61.0293 32.5692 61.0028 32.9921C60.9803 33.35 60.9579 33.7079 60.9354 34.0659C60.8872 34.8322 60.8311 35.6275 60.4603 36.3C60.0895 36.9725 59.3087 37.4853 58.5656 37.2927C57.7703 37.0865 57.3579 36.2101 57.1821 35.4076C56.8643 33.9591 56.7038 29.7829 59.1217 29.9835Z" fill="#F18175"/>
<path d="M49.0359 21.0273C51.307 20.8684 53.9127 20.8259 55.4663 22.3891C56.2696 23.1972 56.6292 24.2983 56.9494 25.3624C58.1884 29.4864 58.2069 33.7413 57.9501 38.0202C57.621 43.5117 55.1301 48.8651 51.063 52.8214C49.9628 53.892 48.2053 54.9063 46.9189 54.038C45.6325 54.9063 43.8751 53.892 42.7749 52.8214C38.7078 48.8651 36.216 43.5109 35.8878 38.0202C35.6318 33.7421 35.6495 29.4864 36.8885 25.3624C37.2079 24.2983 37.5682 23.1972 38.3715 22.3891C39.9252 20.8259 42.5309 20.8692 44.8019 21.0273H49.0359Z" fill="#FFB2A8"/>
<path d="M37.9353 59.6798C36.6296 60.9421 34.9604 62.0207 33.166 63.0455L46.9184 67.5651L60.6708 63.0455C58.8773 62.0215 57.2072 60.9421 55.9016 59.6798C52.2631 56.1608 52.5335 50.6316 53.4042 45.6457C53.9026 42.7928 55.022 40.0507 56.6632 37.6641H37.1737C38.814 40.0507 39.9343 42.7928 40.4326 45.6457C41.3033 50.6316 41.5738 56.1616 37.9353 59.6798Z" fill="#FFB2A8"/>
<path d="M34.7137 29.9835C34.3309 30.0156 33.9658 30.1826 33.6681 30.4249C33.266 30.7523 32.9795 31.2194 32.8704 31.7266C32.7813 32.1407 32.807 32.5692 32.8343 32.9921C32.8567 33.35 32.8792 33.7079 32.9017 34.0659C32.9498 34.8322 33.006 35.6275 33.3768 36.3C33.7475 36.9725 34.5283 37.4853 35.2714 37.2927C36.0667 37.0865 36.4792 36.2101 36.6549 35.4076C36.9703 33.9591 37.1317 29.7829 34.7137 29.9835Z" fill="#FFB2A8"/>
<path d="M48.0181 54.0629C48.6609 54.1447 49.3246 54.1439 49.7764 54.5347C49.9955 54.7241 50.1247 54.9946 50.2475 55.257C50.6936 56.2088 51.6069 57.256 52.0531 58.2078C52.7529 59.7004 54.6484 60.3448 56.0969 61.1313C56.844 61.5373 57.7018 61.6842 58.5517 61.7524C58.3109 61.5935 58.0758 61.4322 57.8455 61.2685C57.8295 61.2573 57.8134 61.2452 57.7973 61.2332C57.6023 61.0936 57.4122 60.9523 57.226 60.8087C57.1714 60.767 57.1177 60.7244 57.0639 60.6819C56.9114 60.5615 56.7629 60.4403 56.6169 60.3167C56.5623 60.271 56.5069 60.2253 56.454 60.1787C56.2646 60.0142 56.0792 59.8473 55.9018 59.6763C53.5088 57.3627 52.8114 54.1784 52.8588 50.8513C55.5279 47.5747 57.2541 43.6248 57.7966 39.5312C57.0751 41.4901 56.2044 44.1312 54.8088 46.1968C54.6235 46.4713 53.8804 47.4383 53.6533 47.7256C53.0249 48.5192 52.3685 49.3209 51.5218 49.8763C50.4954 50.5504 49.1761 51.4307 48.031 51.8737C46.8858 52.3166 45.1965 52.8214 44.0129 52.4972C43.8572 52.8286 44.2038 53.1312 44.5634 53.201C45.9621 53.4722 46.6049 53.8823 48.0181 54.0629Z" fill="#F18175"/>
<path d="M55.2696 58.9656C54.516 58.0668 53.9575 57.0709 53.5811 55.9964C53.2063 57.2202 50.4297 65.2636 47.2888 65.2636C44.1213 65.2636 42.1768 59.6333 40.6272 56.006C40.5799 55.8961 40.4081 55.9137 40.299 55.8672C40.2051 56.1457 40.0928 56.4161 39.9756 56.6849V142.238L46.9156 142.154L55.2696 142.256V58.9656Z" fill="#158976"/>
<path d="M41.6334 169.178C41.6607 162.133 41.7626 104.856 41.6711 97.8113C41.574 90.3914 42.0274 82.9731 41.7987 75.5565C41.6832 71.8144 41.5515 68.0724 41.4023 64.3311C41.3108 62.0231 41.623 59.0322 41.3012 56.4779C41.0765 56.3286 40.8518 56.1802 40.6311 56.006C40.5372 55.9322 40.412 55.9137 40.3029 55.8672C40.1945 56.1898 40.0677 56.5036 39.9289 56.8133C39.8864 56.9088 39.8366 57.0019 39.7909 57.0966C39.6865 57.3109 39.575 57.5219 39.4538 57.729C39.3936 57.8325 39.331 57.9344 39.2668 58.0355C39.1376 58.2378 38.998 58.4344 38.852 58.6278C38.7862 58.7152 38.7236 58.8035 38.6537 58.8894C38.4322 59.1606 38.1971 59.4255 37.9363 59.6774C33.1285 64.3271 23.44 66.5115 20.4354 72.4869C19.8263 73.6979 19.2983 75.0076 19.2437 76.3622C18.836 86.5226 20.3752 159.138 20.2605 169.46L41.6334 169.178Z" fill="white"/>
<path d="M74.5957 76.365C74.5411 75.0104 74.0131 73.7007 73.404 72.4897C70.3986 66.5143 60.7109 64.3291 55.9031 59.6803C55.7763 59.5575 55.6535 59.4243 55.5339 59.2846C54.6384 58.3088 54.006 57.1997 53.5863 56C53.3022 56.1725 52.9178 56.3748 52.4852 56.5818C52.2381 58.962 52.9531 61.8743 53.0486 63.8051C53.2765 68.405 53.4121 73.0097 53.4932 77.6145C53.6553 86.7638 53.5975 95.9146 53.6031 105.066C53.6063 109.704 53.632 164.573 53.7034 169.211L73.5789 169.464C73.4633 159.14 75.0033 86.5246 74.5957 76.365Z" fill="white"/>
<path d="M20.1515 128.19C20.3088 124.398 20.0873 119.058 20.0657 115.263C19.9838 101.124 19.9028 106.663 19.8209 92.5234C19.0232 101.907 18.6436 110.867 18.9622 120.279C19.2551 128.917 18.9871 117.801 19.3001 126.997C19.6371 127.62 19.5994 128.633 20.1515 128.19Z" fill="#9FA09F"/>
<path d="M73.8451 149.399C73.6878 145.607 73.9093 140.267 73.931 136.472C74.0128 122.333 74.0939 108.194 74.1757 94.0547C74.9734 103.438 75.353 112.398 75.0344 121.811C74.7415 130.448 75.0095 139.009 74.6957 148.206C74.3595 148.828 74.3964 149.842 73.8451 149.399Z" fill="#9FA09F"/>
<path d="M47.2676 14.5947C48.7129 14.6557 50.0908 14.7913 51.2544 14.8892C52.8803 15.0264 54.5535 15.4502 55.7749 16.5327C56.4907 17.1667 57.0099 17.9933 57.4441 18.8455C58.4729 20.8654 59.0547 24.0257 59.1703 26.2887C59.2296 27.4475 59.1671 28.6135 58.9801 29.7587C58.9175 30.1407 58.8878 31.0804 58.6286 31.3725C58.3934 31.6365 57.7426 31.708 57.4208 31.598C56.7676 31.3749 57.0252 31.0772 57.0846 30.3413C57.29 27.8038 57.2732 25.0216 55.8038 22.8348C55.8391 22.8869 52.8289 24.3603 52.5272 24.4839C51.3114 24.983 50.033 25.3177 48.7274 25.4758C44.8938 25.9412 41.3058 24.7816 38.0405 22.8348C36.909 24.5184 36.6112 26.6041 36.6385 28.5927C36.645 29.0918 37.1265 31.1912 36.8568 31.5266C36.4845 31.9904 35.2213 31.5258 35.0961 31.0106C34.1299 27.0342 34.7374 21.7779 36.7589 18.2204C38.6849 14.8306 43.2399 14.4246 47.2676 14.5947Z" fill="#772B0E"/>
<path d="M64.4171 74.6114C63.9212 70.3493 63.2583 65.9797 60.6719 62.4166C59.7827 61.1912 58.6945 60.1127 57.4651 59.2291C56.8496 58.787 56.1819 58.4363 55.5463 58.031C55.0728 57.7293 54.7719 57.1755 54.2848 56.9524C54.1259 56.8794 53.9622 56.8096 53.7969 56.7422V59.2331C54.0256 59.3479 54.2551 59.4635 54.483 59.5798C56.4563 60.5845 58.5765 61.6808 59.8349 63.5811C60.5675 64.6877 61.3267 66.0568 61.7352 67.3079C63.1548 71.6534 63.617 76.1626 63.8321 80.7297C63.8353 80.8051 63.8778 81.6292 63.8666 81.6301C64.1539 81.6012 64.7165 81.8548 65.0038 81.8259C64.9757 79.4128 64.6956 77.0093 64.4171 74.6114Z" fill="#0D455B"/>
<path d="M28.8755 74.6505C29.3715 70.3884 30.0343 66.0188 32.6208 62.4557C33.51 61.2311 34.5981 60.1517 35.8268 59.2682C36.4423 58.826 37.1099 58.4753 37.7455 58.0701C38.219 57.7683 38.5199 57.2146 39.007 56.9915C39.1659 56.9185 39.3297 56.8487 39.495 56.7812V59.2722C39.2655 59.387 39.0368 59.5025 38.8088 59.6189C36.8355 60.6236 34.7153 61.7198 33.457 63.6201C32.7243 64.7268 31.9651 66.0958 31.5567 67.3469C30.137 71.6925 29.6748 76.2017 29.4597 80.7687C29.4565 80.8441 29.414 81.6683 29.4252 81.6691C29.1371 81.6402 28.5754 81.8938 28.2881 81.8649C28.317 79.451 28.5962 77.0483 28.8755 74.6505Z" fill="#0D455B"/>
<path d="M67.3062 80.5326C66.4058 78.1107 63.7391 78.0128 62.1494 79.1748C60.8894 80.0953 60.6503 81.8254 61.1743 83.2675C61.4488 84.0211 61.9945 84.7056 62.7279 85.0507C63.9919 85.6453 65.5921 85.1935 66.5342 84.2995C67.555 83.3301 67.8005 81.864 67.3062 80.5326Z" fill="#0D455B"/>
<path d="M66.2788 80.9857C65.6793 79.3735 63.905 79.3085 62.8473 80.0821C62.0087 80.6944 61.8498 81.846 62.1989 82.805C62.3811 83.3065 62.7446 83.7615 63.2325 83.9919C64.0735 84.3875 65.1384 84.0865 65.766 83.4919C66.4441 82.8475 66.6078 81.8717 66.2788 80.9857Z" fill="#F0F1F2"/>
<path d="M28.9562 80.9062C26.6426 81.8684 24.6075 83.963 23.5746 86.7492C23.2488 87.6288 23.0225 88.5613 22.8163 89.497C22.5844 90.5507 22.3749 91.6316 22.4126 92.7246C22.4704 94.3738 23.4976 95.8648 24.7334 97.3679C25.0063 97.5099 25.4051 97.4353 25.682 97.3061C24.6179 95.9796 23.7568 94.6089 23.5819 93.166C23.317 90.9888 23.6348 88.7041 24.4726 86.7725C25.3104 84.8409 26.6618 83.2736 28.2556 82.3853C28.5068 82.2456 28.774 82.0988 28.957 81.8508V80.9062H28.9562Z" fill="#0D455B"/>
<path d="M24.5663 96.6569C24.5029 96.6906 24.4387 96.7323 24.3962 96.8014C24.3497 96.8776 24.3336 96.9779 24.3296 97.075C24.3135 97.4249 24.4307 97.7772 24.6305 98.0163C24.8303 98.2555 25.1088 98.3791 25.3825 98.363C25.4579 98.359 25.5341 98.3438 25.5999 98.2964C25.6465 98.2635 25.685 98.2162 25.7283 98.1768C25.8551 98.0613 26.0213 98.0091 26.1151 97.8502C26.3631 97.4329 26.0004 96.8744 25.7115 96.6922C25.3672 96.4755 24.917 96.4715 24.5663 96.6569Z" fill="#0D455B"/>
<path d="M23.4149 96.2587C23.6043 96.2531 23.7937 96.2482 23.9831 96.2426C24.0673 96.2402 24.1532 96.2378 24.2335 96.2105C24.337 96.176 24.4228 96.1038 24.5055 96.0332C24.6941 95.8727 24.845 95.7186 25.0327 95.5581C24.8538 94.7403 24.6692 93.9065 24.2479 93.1827C24.0858 92.905 23.8916 92.6474 23.6982 92.3906C23.1453 92.7365 22.8893 92.9532 22.2473 92.8344C21.8452 93.0214 21.6799 93.5173 21.7144 93.8247C21.7377 94.0333 21.8276 94.2275 21.915 94.4177C22.0169 94.6384 22.1189 94.8583 22.2216 95.079C22.4671 95.6103 22.866 96.0588 23.4149 96.2587Z" fill="#F2F5F7"/>
<path d="M28.9491 80.9062C31.2627 81.8684 33.2978 83.963 34.3306 86.7492C34.6564 87.6288 34.8827 88.5613 35.089 89.497C35.3209 90.5507 35.5303 91.6316 35.4926 92.7246C35.4348 94.3738 34.4076 95.8648 33.1718 97.3679C32.8989 97.5099 32.4993 97.4353 32.2232 97.3061C33.2873 95.9796 34.1484 94.6089 34.3234 93.166C34.5882 90.9888 34.2704 88.7041 33.4326 86.7725C32.5948 84.8409 31.2434 83.2736 29.6496 82.3853C29.3984 82.2456 29.1312 82.0988 28.9482 81.8508V80.9062H28.9491Z" fill="#0D455B"/>
<path d="M33.3403 96.6569C33.4037 96.6906 33.4679 96.7323 33.5105 96.8014C33.557 96.8776 33.5731 96.9779 33.5771 97.075C33.5931 97.4249 33.4768 97.7772 33.2761 98.0163C33.0763 98.2555 32.7978 98.3791 32.5242 98.363C32.4488 98.359 32.3725 98.3438 32.3067 98.2964C32.2602 98.2635 32.2216 98.2162 32.1783 98.1768C32.0515 98.0613 31.8854 98.0091 31.7915 97.8502C31.5435 97.4329 31.9063 96.8744 32.1952 96.6922C32.5394 96.4755 32.9896 96.4715 33.3403 96.6569Z" fill="#0D455B"/>
<path d="M34.4928 96.2587C34.3034 96.2531 34.114 96.2482 33.9247 96.2426C33.8404 96.2402 33.7545 96.2378 33.6743 96.2105C33.5708 96.176 33.4849 96.1038 33.4022 96.0332C33.2136 95.8727 33.0628 95.7186 32.875 95.5581C33.054 94.7403 33.2393 93.9065 33.6606 93.1827C33.8228 92.905 34.017 92.6474 34.2104 92.3906C34.7633 92.7365 35.0193 92.9532 35.6613 92.8344C36.0633 93.0214 36.2286 93.5173 36.1941 93.8247C36.1708 94.0333 36.081 94.2275 35.9935 94.4177C35.8916 94.6384 35.7897 94.8583 35.687 95.079C35.4406 95.6103 35.0417 96.0588 34.4928 96.2587Z" fill="#F2F5F7"/>
<path d="M55.2696 70.7423C52.8276 69.1814 50.3856 67.6214 47.9436 66.0613C47.5183 65.7893 47.101 65.5036 46.7005 65.197C43.8765 64.5566 42.0781 59.403 40.6272 56.006C40.5799 55.8961 40.4081 55.9137 40.299 55.8672C40.2051 56.1457 40.0928 56.4161 39.9756 56.6849V61.3659C41.1191 63.0006 42.5219 64.4475 44.1542 65.5951C44.9559 66.1592 45.8065 66.6487 46.6564 67.1383C47.8994 67.8541 49.1425 68.5707 50.3856 69.2866C50.8374 69.5474 51.2908 69.8082 51.7161 70.1091C52.777 70.8594 53.6485 71.8417 54.5096 72.8143C54.7472 73.0824 55.0096 73.3512 55.2704 73.6192V70.7423H55.2696Z" fill="#116857"/>
<path d="M53.5897 55.9922C53.2149 57.216 50.4383 65.2602 47.2973 65.2602C46.8568 65.2602 46.4427 65.1423 46.0479 64.9457C46.1923 65.3894 46.4146 65.9672 46.7452 66.2658C47.0261 66.5202 47.3944 66.4752 47.7467 66.4527C48.0027 66.4367 48.3269 66.4592 48.5661 66.3492C48.7956 66.2433 49.0395 66.0555 49.2763 65.9303C49.83 65.6374 50.3685 65.3148 50.8885 64.9641C50.9399 64.9296 50.9928 64.8927 51.0265 64.8405C51.0538 64.798 51.0667 64.7474 51.0931 64.7041C51.1293 64.6455 51.187 64.6046 51.2424 64.5637C52.012 64.0011 52.6099 63.2395 53.1973 62.4884C53.5263 62.0671 53.8569 61.6442 54.1322 61.1851C54.32 60.8722 54.4805 60.544 54.6378 60.2141C54.8448 59.7808 55.0382 59.3402 55.234 58.902C54.503 58.0185 53.9573 57.0443 53.5897 55.9922Z" fill="#116857"/>
<path d="M41.4494 56.3741C40.9318 55.8541 40.2825 55.4673 39.5787 55.2578C37.9248 57.7504 36.4514 60.3625 35.1738 63.0677C36.1216 63.0822 37.0701 63.0966 38.0179 63.1111C38.0187 63.4104 37.7827 63.6375 37.5123 63.7675C36.6512 64.1808 35.9033 64.8276 35.3688 65.6197C36.7042 72.5669 38.8404 80.0887 41.8634 86.4846C42.1427 83.5531 42.2655 80.5196 42.1154 77.5785C42.0625 76.5376 41.9549 75.5008 41.8667 74.4624C41.3547 68.4501 41.3394 62.4073 41.4494 56.3741Z" fill="#E6E6E6"/>
<path d="M52.373 56.3741C52.8907 55.8541 53.5399 55.4673 54.2437 55.2578C55.8976 57.7504 57.371 60.3625 58.6478 63.0677C57.7 63.0822 56.7515 63.0966 55.8037 63.1111C55.8029 63.4104 56.0389 63.6375 56.3093 63.7675C57.1704 64.1808 57.9183 64.8276 58.4528 65.6197C57.1174 72.5669 56.5966 80.0887 53.5736 86.4846C53.2943 83.5531 53.1715 80.5196 53.3216 77.5785C53.3746 76.5376 53.2542 75.4198 53.2446 74.3773C53.1876 68.3819 52.4822 62.4073 52.373 56.3741Z" fill="#E6E6E6"/>
<path d="M58.4824 93.3368C59.5425 96.5219 58.3869 100.046 59 103.346C59.1493 104.148 59.4326 104.977 60.065 105.492C60.5031 105.849 61.0617 106.018 61.6114 106.149C63.0157 106.485 64.465 106.627 65.9079 106.572C66.3517 106.556 66.9584 106.287 66.7971 105.873C67.9551 105.526 68.2231 104.034 68.2809 102.826C68.4222 99.9028 68.187 96.2595 68.3283 93.336C64.7812 93.332 62.0198 93.5992 58.4824 93.3368Z" fill="white"/>
</g>
<rect x="2.24" y="2.24" width="91.52" height="96.52" rx="8.8" stroke="white" stroke-width="3.52"/>
<defs>
<radialGradient id="paint0_radial_1285_11157" cx="0" cy="0" r="1" gradientUnits="userSpaceOnUse" gradientTransform="translate(48.3697 36.9899) rotate(86.3691) scale(64.2235 93.8942)">
<stop offset="0.2" stop-color="#4FFEB2"/>
<stop offset="1" stop-color="#135035"/>
</radialGradient>
<clipPath id="clip0_1285_11157">
<rect x="4" y="4" width="88" height="93" rx="7.04" fill="white"/>
</clipPath>
</defs>
</svg>
