<svg width="96" height="101" viewBox="0 0 96 101" fill="none" xmlns="http://www.w3.org/2000/svg">
<g clip-path="url(#clip0_1285_11089)">
<rect x="4" y="4" width="88" height="93" rx="7.04545" fill="url(#paint0_radial_1285_11089)"/>
<rect x="4" y="4" width="88" height="93" rx="7.04545" fill="white" fill-opacity="0.8"/>
<path d="M71.3774 68.492C70.8886 61.8136 65.9787 59.0793 65.7022 51.8812C65.4251 44.6831 69.855 38.1774 65.7022 27.2423C61.5493 16.3067 47.3189 17.4143 47.3189 17.4143L45.9622 17.3828L44.6055 17.4143C44.6055 17.4143 30.3744 16.3067 26.2221 27.2423C22.0693 38.178 26.4992 44.6837 26.2221 51.8812C25.9451 59.0793 21.0352 61.8136 20.547 68.492C19.7164 79.8424 29.2983 84.964 45.9628 84.964C62.6266 84.9646 72.2079 79.8429 71.3774 68.492Z" fill="#193036"/>
<path d="M61.8721 62.1953C61.8721 62.1953 65.8086 63.1431 69.412 68.5622C74.8807 76.7863 80.4048 91.008 76.7337 93.8654C73.4115 96.4516 64.7517 85.0622 62.3522 81.9954C59.9532 78.9292 61.8721 62.1953 61.8721 62.1953Z" fill="white"/>
<path d="M30.7712 62.1953C30.7712 62.1953 24.5623 62.1953 19.5323 74.7822C17.2173 80.5752 12.7477 93.8917 15.5643 94.9305C22.0403 97.3184 32.0479 80.9129 32.0479 80.9129L30.7712 62.1953Z" fill="white"/>
<path d="M55.7454 61.0776L52.6011 115.28L40.2382 115.547L36.167 61.266C39.7605 60.236 43.8632 59.9041 47.9163 60.0867C51.0058 60.2249 53.5862 60.5626 55.7454 61.0776Z" fill="#4FA1FF"/>
<path d="M27.5223 95.7109C27.9265 89.067 24.5272 68.9455 28.6188 63.7795C30.6562 61.2102 32.616 62.2793 36.171 61.2656L41.6467 134.281H22.4561C22.4561 134.281 27.1181 102.355 27.5223 95.7109Z" fill="white"/>
<path d="M70.1168 134.281H51.4961L55.7429 61.0781C70.0393 61.75 63.1917 68.6874 62.2229 83.5426C61.1159 100.519 70.1168 134.281 70.1168 134.281Z" fill="white"/>
<path d="M49.4008 56.9204C49.5145 58.4643 50.2261 60.6924 50.2261 60.6924C50.0009 60.9438 48.4465 62.6213 45.9227 62.5793C43.5098 62.5385 42.0458 60.9566 41.8096 60.6924C41.8918 60.4743 41.9828 60.2153 42.0738 59.9219C42.1601 59.6425 42.2435 59.341 42.3205 59.0184C42.4774 58.3465 42.6034 57.5842 42.6547 56.7437C42.7725 54.8184 42.4622 53.1951 42.1164 52.0169C42.0143 51.6751 41.9081 51.3724 41.8101 51.1094H50.2267C50.089 51.4827 49.9438 51.9306 49.8102 52.4497C49.5746 53.3614 49.378 54.4888 49.3664 55.7778C49.3611 56.1459 49.3733 56.5273 49.4008 56.9204Z" fill="#F18175"/>
<path d="M49.811 52.4598C49.5748 53.3726 49.3806 54.5 49.3683 55.7867C47.4179 57.0233 44.8813 58.3776 42.3231 59.0297C42.4817 58.3554 42.6071 57.5931 42.6591 56.7526C42.7775 54.8308 42.466 53.2052 42.1172 52.027C42.3487 51.6525 42.5511 51.3417 42.6958 51.12C42.8486 50.8896 42.9396 50.7578 42.9396 50.7578L44.4019 51.12L49.811 52.4598Z" fill="#EF9C9C"/>
<path d="M57.8028 51.8767C52.9809 55.8703 39.5962 55.8703 34.7743 51.8767C29.3179 47.3581 27.1942 30.8336 32.6501 26.3151C37.4719 22.3221 55.1046 22.3221 59.9265 26.3151C65.3829 30.8336 63.2592 47.3581 57.8028 51.8767Z" fill="#FFB2A8"/>
<path d="M30.8716 35.9908C30.4703 35.1118 27.7937 34.8604 26.202 35.9908C24.6102 37.1212 26.3081 42.0737 28.006 42.7462C29.4187 43.3055 30.8716 43.3831 31.4024 42.7462C31.9325 42.1098 31.6141 37.6199 30.8716 35.9908Z" fill="#FFB2A8"/>
<path d="M61.3673 35.9908C61.768 35.1118 64.4452 34.8604 66.0369 35.9908C67.6287 37.1212 65.9308 42.0737 64.2329 42.7462C62.8202 43.3055 61.3673 43.3831 60.8366 42.7462C60.3064 42.1098 60.6242 37.6199 61.3673 35.9908Z" fill="#FFB2A8"/>
<path d="M63.2758 38.1958C63.0029 39.2194 63.1324 40.1427 63.5646 40.2582C63.9968 40.3737 63.9017 39.4282 64.1746 38.4046C64.4476 37.381 64.9854 36.6665 64.5526 36.551C64.1204 36.4355 63.5488 37.1716 63.2758 38.1958Z" fill="#6C341E"/>
<path d="M45.4664 24.6601C45.4664 24.6601 39.618 33.3548 29.4844 35.2825C29.4844 35.2825 27.5637 32.1346 30.1475 26.5977C32.7314 21.0608 45.9278 21.43 51.2798 21.9835C56.6325 22.537 64.9971 24.1188 63.1318 35.2825C63.1318 35.2825 55.4333 34.442 45.4664 24.6601Z" fill="#193036"/>
<path d="M42.366 58.7344C42.366 58.7344 39.8475 59.387 38.7457 60.42C37.6439 61.453 42.1525 66.2754 42.1525 66.2754L46.1135 62.4369L42.366 58.7344Z" fill="#3376C4"/>
<path d="M49.7782 58.7344C49.7782 58.7344 52.2967 59.387 53.3985 60.42C54.5003 61.453 49.9922 66.2754 49.9922 66.2754L46.0312 62.4369L49.7782 58.7344Z" fill="#3376C4"/>
<path d="M36.1685 61.2656C36.1685 61.2656 32.0378 68.2088 31.6225 69.3853C31.2072 70.5617 34.6677 74.9222 34.6677 74.9222C34.6677 74.9222 32.9372 83.2967 32.7295 84.9579C32.5219 86.619 38.8019 96.3893 38.8019 96.3893L36.1685 61.2656Z" fill="#E6E6E6"/>
<path d="M55.7456 61.0781C55.7456 61.0781 60.4503 67.1021 60.5704 67.7944C60.6906 68.4868 56.953 73.8849 56.953 73.8849C56.953 73.8849 59.0207 81.1588 58.9559 83.5432C58.8912 85.9276 53.7695 94.7868 53.7695 94.7868L55.7456 61.0781Z" fill="#E6E6E6"/>
<path d="M48.4811 105.572L29.2561 101.808C28.5906 101.678 28.1566 101.033 28.2867 100.367L33.6982 72.7268C33.8283 72.0613 34.474 71.6273 35.1395 71.7574L54.3645 75.5212C55.03 75.6513 55.464 76.297 55.3339 76.9625L49.9223 104.603C49.7923 105.268 49.1472 105.702 48.4811 105.572Z" fill="#193036"/>
<path d="M48.3527 73.6752L41.4307 72.3203L41.1018 74.0003L48.0239 75.3552L48.3527 73.6752Z" fill="#A5A7AA"/>
<path d="M46.6384 74.2182L42.7959 73.4658L42.9744 72.5554C43.0572 72.1307 43.469 71.8537 43.8942 71.9365L46.1987 72.3874C46.6233 72.4708 46.9003 72.8826 46.8175 73.3072L46.6384 74.2182Z" fill="#A5A7AA"/>
<path d="M42.9609 72.6258L46.8035 73.3782L43.0029 72.4531L42.9609 72.6258Z" fill="#7C7E81"/>
<path d="M43.3889 74.4548L42.3828 74.2577L44.1904 72.8672L45.1965 73.0643L43.3889 74.4548Z" fill="#EFEFF0"/>
<path d="M44.1848 74.6058L43.8027 74.5311L45.6103 73.1406L45.9923 73.2153L44.1848 74.6058Z" fill="#EFEFF0"/>
<path d="M26.5588 75.0312L24.9443 87.8993L27.1975 87.3743L26.5588 75.0312Z" fill="#DADADB"/>
<path d="M35.2207 86.548C35.2207 86.548 48.3103 83.6964 48.8335 87.2975C49.3561 90.8985 35.6535 93.6679 35.6535 93.6679L35.2207 86.548Z" fill="#FFB2A8"/>
<path d="M45.2128 90.7479C45.2128 90.7479 52.0965 91.4799 52.8168 90.8203C53.5372 90.1612 53.1744 89.4718 53.7063 88.8646C54.2383 88.2574 53.8556 87.1469 54.4092 86.1098C54.9627 85.0728 54.9621 82.472 55.1231 81.7184C55.2835 80.9642 54.979 78.9228 54.979 78.9228L54.4249 80.9106C54.4249 80.9106 51.1079 81.586 50.265 81.796C49.4216 82.0054 49.6258 81.4612 50.317 80.7642C51.0081 80.0672 51.403 77.9931 51.035 77.4133C50.6669 76.8336 49.708 77.3993 49.1953 78.7753C48.6827 80.1518 45.9629 82.3098 45.4403 83.0343C44.9183 83.7587 42.9766 86.1588 42.9766 86.1588L45.2128 90.7479Z" fill="#FFB2A8"/>
<path d="M14.8711 94.0875C14.8711 94.0875 16.5766 99.2139 19.6754 99.215C25.3868 99.218 45.1706 91.9481 45.1706 91.9481C45.3496 91.0627 45.573 89.3438 45.0043 87.3147C44.5342 85.6372 43.72 84.4503 43.181 83.7812C34.4694 85.8116 25.7577 87.8419 17.0455 89.8717L14.8711 94.0875Z" fill="white"/>
<path d="M40.8736 93.8145C41.822 94.067 42.2729 94.4345 41.4394 94.6788C40.8509 94.8515 39.0841 95.4447 38.0938 95.7789L45.9649 102.537C47.3228 102.302 50.3184 99.8571 50.3184 99.8571L49.9329 94.7669C49.9329 94.7669 47.0451 93.6739 46.2292 93.3123C45.4126 92.9506 41.9754 92.4601 40.838 91.5304C39.7007 90.6007 38.5878 90.5966 38.5627 91.2825C38.5382 91.9707 39.9258 93.5619 40.8736 93.8145Z" fill="#FFB2A8"/>
<path d="M56.8248 91.1875C56.8248 91.1875 44.0851 95.3316 45.4511 98.704C46.8171 102.076 60.0444 97.5527 60.0444 97.5527L56.8248 91.1875Z" fill="#FFB2A8"/>
<path d="M77.1665 85.4748C77.1665 85.4748 79.3136 92.7114 76.6393 94.2763C71.7101 97.1606 50.9616 100.869 50.9616 100.869C50.3603 100.195 49.2999 98.8234 48.7668 96.7849C48.3258 95.0993 48.4302 93.6633 48.558 92.8141C57.1034 90.1701 65.6488 87.5268 74.1948 84.8828L77.1665 85.4748Z" fill="white"/>
<path d="M47.4758 101.876C47.4758 101.876 43.2074 104.403 41.6455 104.065C40.0835 103.727 40.5752 102.778 40.5752 102.778C40.5752 102.778 38.0951 103.2 37.401 102.842C35.9709 102.103 36.1698 101.326 36.1698 101.326C36.1698 101.326 35.1771 101.426 34.1388 100.388C33.1006 99.3495 33.17 98.7266 33.7236 98.5189C34.2771 98.3113 36.0076 99.0654 38.707 98.2384C38.707 98.2384 35.835 98.2769 34.4503 97.3425C33.0662 96.4081 33.4623 95.5128 34.3121 95.416C35.1619 95.3197 34.8644 96.1783 40.9555 94.8047L48.2299 99.8948L47.4758 101.876Z" fill="#FFB2A8"/>
</g>
<rect x="2.23864" y="2.23864" width="91.5227" height="96.5227" rx="8.80682" stroke="white" stroke-width="3.52273"/>
<defs>
<radialGradient id="paint0_radial_1285_11089" cx="0" cy="0" r="1" gradientUnits="userSpaceOnUse" gradientTransform="translate(48.3697 36.9899) rotate(86.3691) scale(64.2235 93.8942)">
<stop offset="0.2" stop-color="#F2FE4F"/>
<stop offset="1" stop-color="#5C6300"/>
</radialGradient>
<clipPath id="clip0_1285_11089">
<rect x="4" y="4" width="88" height="93" rx="7.04545" fill="white"/>
</clipPath>
</defs>
</svg>
