<svg width="22" height="22" viewBox="0 0 22 22" fill="none" xmlns="http://www.w3.org/2000/svg">
<path d="M19.8394 15.8576C19.2625 15.3738 15.8794 13.2315 15.3171 13.3298C15.0531 13.3767 14.8511 13.6017 14.3106 14.2465C14.0606 14.5639 13.7861 14.8612 13.4895 15.1356C12.9462 15.0043 12.4203 14.8094 11.9227 14.5548C9.97126 13.6047 8.39475 12.0277 7.44525 10.076C7.19065 9.57841 6.9957 9.05249 6.86445 8.50917C7.13883 8.21263 7.43609 7.93811 7.75347 7.68813C8.39763 7.14759 8.62335 6.94695 8.67021 6.68163C8.76855 6.11799 6.62421 2.73615 6.14241 2.15931C5.94045 1.92039 5.75697 1.76001 5.52201 1.76001C4.84089 1.76001 1.76001 5.56953 1.76001 6.06321C1.76001 6.10347 1.82601 10.0694 6.83475 15.1653C11.9306 20.174 15.8965 20.24 15.9368 20.24C16.4305 20.24 20.24 17.1591 20.24 16.478C20.24 16.243 20.0796 16.0596 19.8394 15.8576ZM15.62 10.34H16.94C16.9384 8.94015 16.3816 7.59807 15.3918 6.60822C14.4019 5.61837 13.0599 5.06158 11.66 5.06001V6.38001C12.7099 6.38106 13.7166 6.79861 14.459 7.54102C15.2014 8.28344 15.619 9.29007 15.62 10.34Z" fill="#222E39"/>
<path d="M18.92 10.34H20.24C20.2374 8.06526 19.3326 5.88442 17.7241 4.27593C16.1156 2.66743 13.9348 1.76263 11.66 1.76001V3.08001C13.5848 3.08228 15.4301 3.8479 16.7911 5.20892C18.1521 6.56994 18.9177 8.41523 18.92 10.34Z" fill="#222E39"/>
</svg>
