<svg width="22" height="22" viewBox="0 0 22 22" fill="none" xmlns="http://www.w3.org/2000/svg">
<g clip-path="url(#clip0_27_3918)">
<path d="M1.95166 12.3892C1.63715 12.3892 1.3822 12.0994 1.3822 11.7421V2.23764C1.3822 1.88025 1.63719 1.59054 1.95166 1.59054H5.38256V12.3892H1.95166ZM20.6176 8.81574C20.6176 9.6372 20.2292 10.3575 19.6501 10.7521C19.8797 11.1283 20.0025 11.5753 20.0021 12.0332C20.0021 13.277 19.1115 14.289 18.0169 14.289H13.8264C13.9548 14.9504 14.1305 15.9428 14.2528 16.9817C14.5711 19.6854 14.3535 21.1848 13.5682 21.7005C13.0786 22.0219 12.5508 22.0871 12.0819 21.8842C11.7196 21.7274 11.2304 21.3419 10.9516 20.3958L9.85021 17.1188C9.29185 15.5517 7.58194 13.9066 6.5215 12.997V1.3042C8.48688 0.521651 10.5378 0.124995 12.6301 0.124995H17.1962C18.2907 0.124995 19.1813 1.13697 19.1813 2.38081C19.1817 2.8007 19.0784 3.21229 18.8831 3.56873C19.5449 3.93496 20.002 4.70717 20.002 5.59827C20.0025 6.05612 19.8796 6.50317 19.65 6.87937C20.2292 7.27389 20.6176 7.99427 20.6176 8.81574Z" fill="white"/>
</g>
<defs>
<clipPath id="clip0_27_3918">
<rect width="22" height="22" fill="white"/>
</clipPath>
</defs>
</svg>
