<svg width="19" height="19" viewBox="0 0 19 19" fill="none" xmlns="http://www.w3.org/2000/svg">
<path d="M15.5314 11.5526C15.5314 11.8267 15.3085 12.0496 15.0344 12.0496H11.2551C10.4355 12.0496 9.76865 12.7165 9.76865 13.5361C9.76865 14.3557 10.4355 15.0225 11.2551 15.0225H13.095C13.3342 15.0225 13.5287 15.2172 13.5287 15.4564C13.5287 15.6955 13.3342 15.8902 13.095 15.8902H7.4548C7.12312 16.2538 6.77795 16.5777 6.45358 16.8546H13.095C13.8659 16.8546 14.4932 16.2273 14.4932 15.4564C14.4932 14.6854 13.8659 14.0581 13.095 14.0581H11.2551C10.9673 14.0581 10.7331 13.824 10.7331 13.5361C10.7331 13.2483 10.9673 13.0141 11.2551 13.0141H15.0344C15.8403 13.0141 16.4959 12.3585 16.4959 11.5526C16.4959 11.0916 16.2813 10.6799 15.9467 10.4119C15.6739 10.6397 15.3917 10.8561 15.1009 11.0605C15.3436 11.0932 15.5314 11.3011 15.5314 11.5526ZM14.2931 10.4353C15.127 9.87926 17.78 7.92911 17.78 5.63215C17.78 3.70946 16.2158 2.14526 14.2931 2.14526C12.3704 2.14526 10.8062 3.70943 10.8062 5.63215C10.8062 7.92911 13.4591 9.87926 14.2931 10.4353ZM14.2931 3.56225C15.409 3.56225 16.3169 4.4701 16.3169 5.58603C16.3169 6.70193 15.409 7.60979 14.2931 7.60979C13.1772 7.60979 12.2693 6.70193 12.2693 5.58603C12.2693 4.4701 13.1772 3.56225 14.2931 3.56225Z" fill="#222E39"/>
<path d="M14.2922 6.6396C14.8732 6.6396 15.3458 6.16698 15.3458 5.58605C15.3458 5.00509 14.8732 4.53247 14.2922 4.53247C13.7113 4.53247 13.2387 5.00509 13.2387 5.58605C13.2387 6.16698 13.7113 6.6396 14.2922 6.6396ZM4.70784 16.8546C5.54179 16.2985 8.19476 14.3484 8.19476 12.0514C8.19476 10.1287 6.63052 8.56452 4.70784 8.56452C2.78515 8.56452 1.22095 10.1287 1.22095 12.0514C1.22095 14.3484 3.87391 16.2985 4.70784 16.8546ZM4.70784 9.98147C5.82377 9.98147 6.73162 10.8893 6.73162 12.0053C6.73162 13.1212 5.82377 14.029 4.70784 14.029C3.59194 14.029 2.68408 13.1212 2.68408 12.0053C2.68408 10.8894 3.59194 9.98147 4.70784 9.98147Z" fill="#222E39"/>
<path d="M4.70647 13.0585C5.28743 13.0585 5.76005 12.5859 5.76005 12.005C5.76005 11.424 5.28743 10.9514 4.70647 10.9514C4.12554 10.9514 3.65292 11.424 3.65292 12.005C3.65292 12.5859 4.12554 13.0585 4.70647 13.0585Z" fill="#222E39"/>
</svg>
