<svg width="18" height="19" viewBox="0 0 18 19" fill="none" xmlns="http://www.w3.org/2000/svg">
<path d="M14.175 10.7058V12.9569C14.175 13.7746 13.6937 14.5043 12.9485 14.8458C12.0429 15.2598 10.6715 15.71 8.99995 15.71C7.32843 15.71 5.95705 15.2598 5.04625 14.8458C4.30623 14.5043 3.82495 13.7746 3.82495 12.9569V10.7058L7.50438 12.3877C7.9753 12.605 8.48245 12.7137 8.99995 12.7137C9.51745 12.7137 10.0246 12.605 10.4955 12.3877L14.175 10.7058ZM16.245 9.75879V13.1225C16.245 13.4072 16.0121 13.64 15.7275 13.64C15.4428 13.64 15.21 13.4072 15.21 13.1225V10.2349L16.245 9.75879Z" fill="#222E39"/>
<path d="M7.93289 11.4479C8.26783 11.6008 8.63175 11.68 8.99997 11.68C9.3682 11.68 9.73212 11.6008 10.0671 11.4479L16.676 8.42669C17.0486 8.25643 17.28 7.89573 17.28 7.48535C17.28 7.07498 17.0486 6.71376 16.676 6.5435L10.0671 3.52286C9.73227 3.36965 9.36841 3.29034 9.00023 3.29034C8.63205 3.29034 8.26819 3.36965 7.9334 3.52286L1.32389 6.54299C0.951293 6.71376 0.719971 7.07446 0.719971 7.48484C0.719971 7.89521 0.951293 8.25591 1.32389 8.42669L7.93289 11.4479Z" fill="#222E39"/>
</svg>
