<svg width="18" height="19" viewBox="0 0 18 19" fill="none" xmlns="http://www.w3.org/2000/svg">
<path d="M14.4 4.55H11.7V3.65C11.7 3.15275 11.2972 2.75 10.8 2.75H7.19999C6.70274 2.75 6.29999 3.1532 6.29999 3.65V4.55H3.59999C2.60594 4.55 1.79999 5.35595 1.79999 6.35V8.6H16.2V6.35C16.2 5.35595 15.394 4.55 14.4 4.55ZM10.8 4.55H7.19999V4.1C7.19999 3.8516 7.40159 3.65 7.64999 3.65H10.35C10.5984 3.65 10.8 3.8516 10.8 4.1V4.55ZM10.8 9.95C10.8 10.944 9.99403 11.75 8.99999 11.75C8.00594 11.75 7.19999 10.944 7.19999 9.95C7.19999 9.79341 7.22429 9.64355 7.26345 9.5H1.79999V14.45C1.79999 15.444 2.60594 16.25 3.59999 16.25H14.4C15.394 16.25 16.2 15.444 16.2 14.45V9.5H10.7366C10.7757 9.644 10.8 9.79341 10.8 9.95ZM9.89999 9.95C9.89999 9.78529 9.85229 9.63275 9.77533 9.5H8.22509C8.14768 9.63275 8.09999 9.78529 8.09999 9.95C8.09999 10.4472 8.50274 10.85 8.99999 10.85C9.49723 10.85 9.89999 10.4472 9.89999 9.95Z" fill="#222E39"/>
</svg>
