<svg width="20" height="20" viewBox="0 0 20 20" fill="none" xmlns="http://www.w3.org/2000/svg">
<path fill-rule="evenodd" clip-rule="evenodd" d="M13.7442 3.47041C14.0037 3.72995 14.1494 4.08192 14.1494 4.44891C14.1494 4.8159 14.0037 5.16787 13.7442 5.42741L9.18665 9.98499L13.7442 14.5426C13.8764 14.6702 13.9818 14.823 14.0544 14.9918C14.1269 15.1607 14.1651 15.3423 14.1667 15.5261C14.1683 15.7098 14.1333 15.8921 14.0637 16.0622C13.9941 16.2322 13.8913 16.3868 13.7614 16.5167C13.6314 16.6467 13.4769 16.7494 13.3068 16.819C13.1367 16.8886 12.9545 16.9236 12.7707 16.922C12.5869 16.9204 12.4053 16.8823 12.2365 16.8097C12.0676 16.7372 11.9149 16.6318 11.7872 16.4996L6.25114 10.9635C5.99168 10.7039 5.84592 10.352 5.84592 9.98499C5.84592 9.618 5.99168 9.26603 6.25114 9.00649L11.7872 3.47041C12.0468 3.21094 12.3987 3.06519 12.7657 3.06519C13.1327 3.06519 13.4847 3.21094 13.7442 3.47041Z" fill="#222E39"/>
</svg>
