<svg width="22" height="22" viewBox="0 0 22 22" fill="none" xmlns="http://www.w3.org/2000/svg">
<path d="M1.95166 10.2175C1.63715 10.2175 1.3822 10.4725 1.3822 10.787V19.1509C1.3822 19.4654 1.63719 19.7203 1.95166 19.7203H5.38256V10.2175H1.95166ZM20.6176 13.3622C20.6176 12.6393 20.2292 12.0054 19.6501 11.6582C19.8797 11.3271 20.0025 10.9337 20.0021 10.5308C20.0021 9.43625 19.1115 8.54571 18.0169 8.54571H13.8264C13.9548 7.9637 14.1305 7.09035 14.2528 6.17608C14.5711 3.79687 14.3535 2.47738 13.5682 2.02361C13.0786 1.74076 12.5508 1.68339 12.0819 1.8619C11.7196 1.99989 11.2304 2.33913 10.9516 3.17173L9.85021 6.05551C9.29185 7.43448 7.58194 8.88217 6.5215 9.68267V19.9723C8.48688 20.661 10.5378 21.01 12.6301 21.01H17.1962C18.2907 21.01 19.1813 20.1195 19.1813 19.0249C19.1817 18.6554 19.0784 18.2932 18.8831 17.9795C19.5449 17.6572 20.002 16.9777 20.002 16.1935C20.0025 15.7906 19.8796 15.3972 19.65 15.0662C20.2292 14.719 20.6176 14.0851 20.6176 13.3622Z" fill="white"/>
</svg>
