<svg width="87" height="83" viewBox="0 0 87 83" fill="none" xmlns="http://www.w3.org/2000/svg">
<path d="M78.0407 80.7777H8.52124L15.9158 61.3738H70.6462L78.0407 80.7777Z" fill="#1E346F"/>
<path d="M70.6188 61.3738H15.9424L20.7192 56.9749H65.7611L70.6188 61.3738Z" fill="#1E346F"/>
<path d="M70.6188 61.3738H15.9424L20.7192 56.9749H65.7611L70.6188 61.3738Z" fill="white" fill-opacity="0.2"/>
<path d="M79.4441 82.1001H7.11792V79.6443H79.4441V82.1001Z" fill="#1E346F"/>
<path d="M62.2402 67.2527H24.9043V75.9355H62.2402V67.2527Z" fill="#F4F8FF"/>
<path d="M73.4246 45.8246C73.4246 45.8246 81.6018 45.3928 86.0817 50.7903C86.0817 50.7903 81.7907 49.7918 79.092 51.2491C79.092 51.2491 83.0051 53.597 84.0846 57.6991C84.0846 57.6991 78.4982 53.3811 70.9148 54.8924C70.9148 54.8924 70.9148 51.0872 73.4246 45.8246Z" fill="#1E346F"/>
<path d="M73.4246 45.8246C73.4246 45.8246 81.6018 45.3928 86.0817 50.7903C86.0817 50.7903 81.7907 49.7918 79.092 51.2491C79.092 51.2491 83.0051 53.597 84.0846 57.6991C84.0846 57.6991 78.4982 53.3811 70.9148 54.8924C70.9148 54.8924 70.9148 51.0872 73.4246 45.8246Z" fill="white" fill-opacity="0.1"/>
<path d="M70.376 51.5999L70.9157 54.8924C72.9668 54.5145 74.586 53.6239 74.4241 52.7334C74.2891 51.8428 72.427 51.276 70.376 51.5999Z" fill="#1E346F"/>
<path d="M70.376 51.5999L70.9157 54.8924C72.9668 54.5145 74.586 53.6239 74.4241 52.7334C74.2891 51.8428 72.427 51.276 70.376 51.5999Z" fill="white" fill-opacity="0.2"/>
<path d="M60.9294 43.3418C60.9294 43.3418 63.1964 46.2835 65.6252 44.3943C68.0271 42.5322 70.5099 39.8065 76.6361 41.5607L74.4231 52.7334C74.4231 52.7334 70.8338 50.3316 67.8382 52.5985C64.3838 55.2163 63.1424 54.8654 59.0403 54.8654C59.0403 54.8654 59.0133 53.8939 59.0403 53.1383C59.1213 50.7094 59.4721 45.6357 60.9294 43.3418Z" fill="#1E346F"/>
<path d="M60.9294 43.3418C60.9294 43.3418 63.1964 46.2835 65.6252 44.3943C68.0271 42.5322 70.5099 39.8065 76.6361 41.5607L74.4231 52.7334C74.4231 52.7334 70.8338 50.3316 67.8382 52.5985C64.3838 55.2163 63.1424 54.8654 59.0403 54.8654C59.0403 54.8654 59.0133 53.8939 59.0403 53.1383C59.1213 50.7094 59.4721 45.6357 60.9294 43.3418Z" fill="white" fill-opacity="0.05"/>
<path d="M59.0403 50.7634V54.8385C61.1453 54.8115 62.8185 53.9209 62.8185 52.8145C62.8185 51.708 61.1453 50.7904 59.0403 50.7634Z" fill="#1E346F"/>
<path d="M59.0403 50.7634V54.8385C61.1453 54.8115 62.8185 53.9209 62.8185 52.8145C62.8185 51.708 61.1453 50.7904 59.0403 50.7634Z" fill="white" fill-opacity="0.2"/>
<path d="M13.1352 45.8246C13.1352 45.8246 4.95806 45.3928 0.451172 50.7903C0.451172 50.7903 4.76914 49.7918 7.44089 51.2491C7.44089 51.2491 3.55472 53.597 2.47522 57.6991C2.47522 57.6991 8.06161 53.3811 15.6451 54.8924C15.6451 54.8924 15.6181 51.0872 13.1352 45.8246Z" fill="#1E346F"/>
<path d="M13.1352 45.8246C13.1352 45.8246 4.95806 45.3928 0.451172 50.7903C0.451172 50.7903 4.76914 49.7918 7.44089 51.2491C7.44089 51.2491 3.55472 53.597 2.47522 57.6991C2.47522 57.6991 8.06161 53.3811 15.6451 54.8924C15.6451 54.8924 15.6181 51.0872 13.1352 45.8246Z" fill="white" fill-opacity="0.1"/>
<path d="M16.1847 51.5999L15.6449 54.8924C13.5669 54.5145 11.9747 53.6239 12.1366 52.7334C12.2715 51.8428 14.1067 51.276 16.1847 51.5999Z" fill="#1E346F"/>
<path d="M16.1847 51.5999L15.6449 54.8924C13.5669 54.5145 11.9747 53.6239 12.1366 52.7334C12.2715 51.8428 14.1067 51.276 16.1847 51.5999Z" fill="white" fill-opacity="0.2"/>
<path d="M25.6295 43.3418C25.6295 43.3418 23.3626 46.2835 20.9337 44.3943C18.5048 42.5322 16.022 39.8065 9.92285 41.5607L12.1358 52.7334C12.1358 52.7334 15.7251 50.3316 18.7207 52.5985C22.1751 55.2163 23.4165 54.8654 27.5186 54.8654C27.5186 54.8654 27.5186 53.8939 27.5186 53.1383C27.4377 50.7094 27.0598 45.6357 25.6295 43.3418Z" fill="#1E346F"/>
<path d="M25.6295 43.3418C25.6295 43.3418 23.3626 46.2835 20.9337 44.3943C18.5048 42.5322 16.022 39.8065 9.92285 41.5607L12.1358 52.7334C12.1358 52.7334 15.7251 50.3316 18.7207 52.5985C22.1751 55.2163 23.4165 54.8654 27.5186 54.8654C27.5186 54.8654 27.5186 53.8939 27.5186 53.1383C27.4377 50.7094 27.0598 45.6357 25.6295 43.3418Z" fill="white" fill-opacity="0.05"/>
<path d="M27.5194 50.7634V54.8385C25.4144 54.8115 23.7412 53.9209 23.7412 52.8145C23.7412 51.708 25.4144 50.7904 27.5194 50.7634Z" fill="#1E346F"/>
<path d="M27.5194 50.7634V54.8385C25.4144 54.8115 23.7412 53.9209 23.7412 52.8145C23.7412 51.708 25.4144 50.7904 27.5194 50.7634Z" fill="white" fill-opacity="0.2"/>
<path d="M43.2801 38.7539C36.7221 38.7809 30.1372 39.7794 23.7412 41.5606V52.7334C30.0832 50.6823 36.6951 49.4409 43.2801 49.4139C49.865 49.4409 56.4769 50.6823 62.8189 52.7334V41.5606C56.4229 39.7794 49.838 38.7809 43.2801 38.7539Z" fill="#1E346F"/>
<path d="M61.5242 16.6513C60.4177 17.9197 59.3382 18.7293 58.7985 18.7023C58.5556 18.6753 58.0159 18.5674 58.0968 17.4879C58.3397 14.0605 58.1238 14.0605 58.4207 3.02266C58.4207 3.02266 55.1012 9.20276 51.5659 16.6783C51.1881 17.5149 50.9182 18.1896 50.2975 18.1896C49.6228 18.1896 49.5149 17.6498 49.164 16.7053C47.8146 12.8731 43.1458 1.78125 43.1458 1.78125C43.1458 1.78125 38.477 12.8731 37.1007 16.7053C36.7768 17.6498 36.6419 18.1896 35.9672 18.1896C35.3735 18.1896 35.1036 17.5149 34.6988 16.6783C31.1904 9.20276 27.871 3.02266 27.871 3.02266C28.1408 14.0605 27.9519 14.0605 28.1948 17.4879C28.2758 18.5674 27.736 18.6753 27.4931 18.7023C26.9534 18.7293 25.8739 17.9197 24.7674 16.6513C20.8273 12.0634 17.5078 9.55363 17.5078 9.55363C21.475 21.1042 23.0672 25.5841 23.0672 25.5841H43.1188H43.1458H63.2244C63.2244 25.5841 64.8167 21.1042 68.7568 9.55363C68.7568 9.55363 65.4374 12.0634 61.5242 16.6513Z" fill="#1E346F"/>
<path d="M64.0064 26.7445C50.5936 24.3966 36.884 24.3966 23.4443 26.7176V36.352C37.1539 34.8138 50.8365 35.2455 64.0064 36.379V26.7445Z" fill="#1E346F"/>
<path d="M64.0064 34.8137H23.4443V36.352H64.0064V34.8137Z" fill="#1E346F"/>
<path d="M44.9262 1.78116C44.9262 2.77969 44.1436 3.5893 43.1451 3.5893C42.1465 3.5893 41.3369 2.77969 41.3369 1.78116C41.3369 0.809615 42.1465 0 43.1451 0C44.1436 0 44.9262 0.809615 44.9262 1.78116Z" fill="#1E346F"/>
<path d="M60.0675 3.80523C59.8246 4.66882 58.934 5.1816 58.0434 4.9657C57.1798 4.72281 56.6671 3.80524 56.91 2.94164C57.1528 2.07805 58.0434 1.56527 58.907 1.80815C59.7976 2.05104 60.2834 2.94163 60.0675 3.80523Z" fill="#1E346F"/>
<path d="M70.106 10.1744C69.7281 10.93 68.8106 11.2269 68.0819 10.8221C67.3263 10.4442 67.0564 9.55365 67.4342 8.79801C67.812 8.06935 68.7026 7.77248 69.4583 8.15031C70.1869 8.52813 70.4838 9.4457 70.106 10.1744Z" fill="#1E346F"/>
<path d="M26.493 3.80523C26.7359 4.66882 27.6264 5.1816 28.49 4.9657C29.3806 4.72281 29.8664 3.80524 29.6505 2.94164C29.4076 2.07805 28.517 1.56527 27.6264 1.80815C26.7628 2.05104 26.2501 2.94163 26.493 3.80523Z" fill="#1E346F"/>
<path d="M16.4547 10.1744C16.8325 10.93 17.7501 11.2269 18.4788 10.8221C19.2074 10.4442 19.5043 9.55365 19.1265 8.79801C18.7486 8.06935 17.8311 7.77248 17.1024 8.15031C16.3468 8.52813 16.0769 9.4457 16.4547 10.1744Z" fill="#1E346F"/>
<path d="M63.8178 25.1791C57.179 23.9647 50.4591 23.344 43.7392 23.344C37.0194 23.344 30.2995 23.9647 23.6606 25.1791C23.2019 25.2601 22.878 25.7189 22.959 26.1777V27.8239C22.959 27.8239 23.2828 26.8524 23.9845 26.8524C30.5154 25.6649 37.1273 25.0712 43.7392 25.0712C50.3511 25.0712 56.9631 25.6649 63.494 26.8524C64.1957 26.8524 64.5195 27.8239 64.5195 27.8239V26.1777C64.6005 25.7189 64.2766 25.2601 63.8178 25.1791Z" fill="#F4F8FF"/>
</svg>
