<svg width="20" height="20" viewBox="0 0 20 20" fill="none" xmlns="http://www.w3.org/2000/svg">
<path fill-rule="evenodd" clip-rule="evenodd" d="M6.26847 3.47041C6.00901 3.72995 5.86325 4.08192 5.86325 4.44891C5.86325 4.8159 6.00901 5.16787 6.26847 5.42741L10.826 9.98499L6.26847 14.5426C6.13628 14.6702 6.03085 14.823 5.95831 14.9918C5.88578 15.1607 5.8476 15.3423 5.846 15.5261C5.8444 15.7098 5.87942 15.8921 5.94901 16.0622C6.0186 16.2322 6.12137 16.3868 6.25132 16.5167C6.38127 16.6467 6.53579 16.7494 6.70589 16.819C6.87598 16.8886 7.05822 16.9236 7.24199 16.922C7.42576 16.9204 7.60737 16.8823 7.77623 16.8097C7.94508 16.7372 8.0978 16.6318 8.22548 16.4996L13.7616 10.9635C14.021 10.7039 14.1668 10.352 14.1668 9.98499C14.1668 9.618 14.021 9.26603 13.7616 9.00649L8.22548 3.47041C7.96593 3.21094 7.61397 3.06519 7.24697 3.06519C6.87998 3.06519 6.52801 3.21094 6.26847 3.47041Z" fill="#222E39"/>
</svg>
