<svg width="86" height="81" viewBox="0 0 86 81" fill="none" xmlns="http://www.w3.org/2000/svg">
<path d="M21.4879 67.1984C15.4238 68.1851 9.44197 69.583 3.58344 71.3919C4.46736 68.9252 4.94015 67.6918 5.94741 65.2456C3.83011 63.6628 2.74063 62.8816 0.5 61.381C6.9341 59.5721 13.2449 58.092 19.8023 56.8586C20.4807 60.9904 20.8096 63.0666 21.4879 67.1984Z" fill="#1E346F"/>
<path d="M64.5947 67.1984C70.6383 68.1851 76.6201 69.583 82.4992 71.3919C81.6153 68.9252 81.1425 67.6918 80.1352 65.2456C82.2525 63.6628 83.342 62.8816 85.5621 61.381C79.1485 59.5721 72.8378 58.092 66.2803 56.8586C65.602 60.9904 65.2731 63.0666 64.5947 67.1984Z" fill="#1E346F"/>
<path fill-rule="evenodd" clip-rule="evenodd" d="M21.4879 67.1984C15.4238 68.1851 9.44197 69.583 3.58344 71.3919C4.46736 68.9252 4.94015 67.6918 5.94741 65.2456C3.83011 63.6628 2.74063 62.8816 0.5 61.381C6.9341 59.5721 13.2449 58.092 19.8023 56.8586C20.4807 60.9904 20.8096 63.0666 21.4879 67.1984ZM1.21947 61.5043C3.11064 62.7788 4.17957 63.5394 6.13241 64.9989L6.31742 65.1428L6.23519 65.3689C5.28961 67.6096 4.83737 68.8224 4.07679 70.9191C9.64753 69.2335 15.3827 67.8973 21.1385 66.9518L20.9535 65.8212L19.5556 57.2287C13.3271 58.4004 7.32467 59.7982 1.21947 61.5043Z" fill="white"/>
<path fill-rule="evenodd" clip-rule="evenodd" d="M85.5621 61.381C83.342 62.8816 82.2525 63.6628 80.1352 65.2456C81.1425 67.6918 81.6153 68.9252 82.4992 71.3919C76.6201 69.583 70.6383 68.1851 64.5947 67.1984C65.2731 63.0666 65.602 60.9904 66.2803 56.8586C72.8378 58.092 79.1485 59.5721 85.5621 61.381ZM66.2598 58.832L64.9442 66.9518C70.6999 67.8973 76.4351 69.2335 82.0059 70.9191C81.2453 68.8224 80.7725 67.6301 79.8475 65.3689L79.7447 65.1428L79.9502 64.9989C81.9236 63.5394 82.972 62.7583 84.8632 61.5043C78.758 59.7982 72.735 58.4004 66.527 57.2287L66.2598 58.832Z" fill="white"/>
<path d="M21.4875 67.219C17.2735 65.3689 15.074 64.5056 10.5516 63.005C9.58547 58.9348 9.09212 56.8998 8.12598 52.8091C12.9567 54.248 15.3001 55.0703 19.8019 56.8998C20.4803 61.0316 20.8092 63.0872 21.4875 67.219Z" fill="#1E346F"/>
<path d="M21.4875 67.219C17.2735 65.3689 15.074 64.5056 10.5516 63.005C9.58547 58.9348 9.09212 56.8998 8.12598 52.8091C12.9567 54.248 15.3001 55.0703 19.8019 56.8998C20.4803 61.0316 20.8092 63.0872 21.4875 67.219Z" fill="white" fill-opacity="0.2"/>
<path d="M64.5947 67.219C68.8088 65.3689 70.9877 64.5056 75.5101 63.005C76.4968 58.9348 76.9696 56.8998 77.9357 52.8091C73.1256 54.248 70.7822 55.0703 66.2598 56.8998C65.602 61.0316 65.2525 63.0872 64.5947 67.219Z" fill="#1E346F"/>
<path d="M64.5947 67.219C68.8088 65.3689 70.9877 64.5056 75.5101 63.005C76.4968 58.9348 76.9696 56.8998 77.9357 52.8091C73.1256 54.248 70.7822 55.0703 66.2598 56.8998C65.602 61.0316 65.2525 63.0872 64.5947 67.219Z" fill="white" fill-opacity="0.2"/>
<path d="M67.6775 78.4427L43.195 63.9506L18.692 78.4839L24.9205 50.6713L3.52148 31.8828L31.8685 29.2105L43.1539 3.06299L54.4599 29.2105L82.8069 31.8417L61.4284 50.6713L67.6775 78.4427Z" fill="#F4F8FF"/>
<path d="M61.6747 69.7885L43.1741 58.832L24.6735 69.7885L29.3808 48.8005L13.2236 34.6167L34.6227 32.6022L43.1535 12.8477L51.6844 32.5817L73.104 34.5756L56.9673 48.8005L61.6747 69.7885Z" fill="#1E346F"/>
<path style="mix-blend-mode:screen" opacity="0.6" d="M28.5791 67.4862C32.0943 53.2201 40.1729 40.5986 51.1293 31.3072L43.1535 12.8477L34.6227 32.6022L13.2236 34.6167L29.3808 48.8005L24.6735 69.7885L28.5791 67.4862Z" fill="url(#paint0_radial_35_4250)"/>
<path fill-rule="evenodd" clip-rule="evenodd" d="M16.8841 80.9505L23.5648 51.1234L0.603516 30.9371L31.0473 28.0593L43.1549 0L55.2831 28.0593L85.7269 30.896L62.7862 51.1028L69.4875 80.9299L43.1961 65.3483L16.8841 80.9505ZM6.42093 32.8283L26.2577 50.2395L20.4814 75.9964L43.1755 62.5321L65.8696 75.9759L60.0933 50.2395L79.889 32.7872L53.6181 30.341L43.1549 6.12576L32.6918 30.3616L6.42093 32.8283Z" fill="#1E346F"/>
<path fill-rule="evenodd" clip-rule="evenodd" d="M55.2831 28.0593L85.7269 30.896L62.7862 51.1028L69.4875 80.9299L43.1961 65.3483L16.8841 80.9505L23.5648 51.1234L0.603516 30.9371L31.0473 28.0593L43.1549 0L55.2831 28.0593ZM31.3145 28.1826L31.2529 28.3471L31.0679 28.3676L1.32298 31.1633L23.7704 50.8767L23.9143 51L23.8732 51.1851L17.3363 80.3338L43.0316 65.0811L43.1755 64.9988L43.3399 65.0811L69.0353 80.3132L62.4778 51.1645L62.4367 50.9795L62.5806 50.8767L84.9869 31.1222L55.2626 28.3471H55.0776L55.0159 28.1826L43.1549 0.760582L31.3145 28.1826ZM42.8672 6.00242L43.1549 5.34462L43.4427 6.00242L53.8236 30.0532L79.9095 32.4789L80.629 32.5405L80.0945 33.0133L60.4222 50.3217L66.1779 75.8937L66.3218 76.572L65.7257 76.2226L43.1755 62.8816L20.6459 76.2431L20.0292 76.6131L20.1936 75.9142L25.9288 50.3422L6.23593 33.0544L5.70146 32.5816L6.40038 32.52L32.4863 30.0532L42.8672 6.00242ZM43.1755 62.5321L65.8696 75.9759L60.0933 50.2395L79.889 32.8078L53.6181 30.341L43.1549 6.12576L32.6918 30.3616L6.42093 32.8283L26.2577 50.2395L20.4814 75.9964L43.1755 62.5321Z" fill="#1E346F"/>
<path d="M75.5093 63.005C53.5347 58.4004 32.5468 58.4004 10.5516 63.005C9.58547 58.9349 9.09212 56.8998 8.12598 52.8091C31.704 47.814 54.3775 47.814 77.935 52.8091C76.9688 56.8998 76.496 58.9349 75.5093 63.005Z" fill="#1E346F"/>
<path fill-rule="evenodd" clip-rule="evenodd" d="M77.935 52.8089C76.9688 56.8996 76.496 58.9346 75.5093 63.0048C64.5323 60.7025 53.7814 59.5513 43.0305 59.5513C32.3001 59.5513 21.5492 60.7025 10.5516 63.0048C9.58547 58.9346 9.09212 56.8996 8.12598 52.8089C19.9253 50.3216 31.4779 49.0676 43.0305 49.0676C54.6036 49.0676 66.1563 50.3216 77.935 52.8089ZM43.0305 49.376C31.5601 49.376 20.2542 50.5682 8.49599 53.0555L10.4077 61.0519L10.7777 62.6347C21.7959 60.353 32.3412 59.243 43.0305 59.243C53.7197 59.243 64.2856 60.353 75.2832 62.6347L76.4344 57.8246L77.565 53.0555C65.8068 50.5682 54.5009 49.376 43.0305 49.376Z" fill="white"/>
<defs>
<radialGradient id="paint0_radial_35_4250" cx="0" cy="0" r="1" gradientUnits="userSpaceOnUse" gradientTransform="translate(67.2985 33.0479) scale(56.3077 56.3077)">
<stop stop-color="#E8E8E8"/>
<stop offset="0.054" stop-color="#A6A6A6"/>
<stop offset="0.14" stop-color="#606060"/>
<stop offset="1"/>
</radialGradient>
</defs>
</svg>
